<svg xmlns="http://www.w3.org/2000/svg" style="display:none"><symbol id="i-tile" viewBox="0 0 24 24"><path d="M5 2H14L19 7V22H5Z" fill="currentColor" opacity=".16"/><path d="M14 2V7H19" fill="none" stroke="currentColor" stroke-width="1" opacity=".4" stroke-linejoin="round"/></symbol><symbol id="i-merge" viewBox="0 0 24 24"><g fill="none" stroke="currentColor" stroke-width="1.6" stroke-linecap="round" stroke-linejoin="round"><path d="M9 10v4M15 10v4"/><path d="M9 14l3 3 3-3"/></g></symbol><symbol id="i-split" viewBox="0 0 24 24"><g fill="none" stroke="currentColor" stroke-width="1.6" stroke-linecap="round" stroke-linejoin="round"><path d="M12 9v3"/><path d="M9 16l3-3 3 3"/><path d="M9 18h6"/></g></symbol><symbol id="i-image-to-doc" viewBox="0 0 24 24"><g fill="none" stroke="currentColor" stroke-width="1.6" stroke-linecap="round" stroke-linejoin="round"><rect x="8" y="10" width="8" height="6" rx="1"/><circle cx="10.3" cy="12.3" r=".6" fill="currentColor" stroke="none"/><path d="M9 15l2-2 2 2 2-3 2 3"/></g></symbol><symbol id="i-doc-to-img" viewBox="0 0 24 24"><g fill="none" stroke="currentColor" stroke-width="1.6" stroke-linecap="round" stroke-linejoin="round"><rect x="8" y="11" width="7" height="5" rx="1"/><circle cx="10" cy="13" r=".5" fill="currentColor" stroke="none"/><path d="M9 15.5l1.8-1.8 1.7 1.7 1.8-2.4 1.7 2.4"/></g></symbol><symbol id="i-rotate" viewBox="0 0 24 24"><g fill="none" stroke="currentColor" stroke-width="1.6" stroke-linecap="round" stroke-linejoin="round"><path d="M16 12a4 4 0 1 1-1.2-2.9"/><path d="M16 8v3h-3"/></g></symbol><symbol id="i-organize" viewBox="0 0 24 24"><g fill="none" stroke="currentColor" stroke-width="1.6" stroke-linecap="round" stroke-linejoin="round"><path d="M8 10h8M8 13h8M8 16h5"/><circle cx="16.5" cy="16" r=".5" fill="currentColor" stroke="none"/></g></symbol><symbol id="i-crop" viewBox="0 0 24 24"><g fill="none" stroke="currentColor" stroke-width="1.6" stroke-linecap="round" stroke-linejoin="round"><path d="M9 8v7a1 1 0 0 0 1 1h7"/><path d="M16 9v7"/><path d="M9 9h6"/></g></symbol><symbol id="i-compress" viewBox="0 0 24 24"><g fill="none" stroke="currentColor" stroke-width="1.6" stroke-linecap="round" stroke-linejoin="round"><path d="M9 10l2 2-2 2"/><path d="M15 10l-2 2 2 2"/></g></symbol><symbol id="i-repair" viewBox="0 0 24 24"><g fill="none" stroke="currentColor" stroke-width="1.6" stroke-linecap="round" stroke-linejoin="round"><path d="M14.7 9.3a2 2 0 0 0-2.7 2.7l-4 4V18h2l4-4a2 2 0 0 0 2.7-2.7l-1.5 1.5-1-1z"/></g></symbol><symbol id="i-ocr" viewBox="0 0 24 24"><g fill="none" stroke="currentColor" stroke-width="1.6" stroke-linecap="round" stroke-linejoin="round"><circle cx="11" cy="12" r="2.6"/><path d="M13 14l2.5 2.5"/></g></symbol><symbol id="i-scan" viewBox="0 0 24 24"><g fill="none" stroke="currentColor" stroke-width="1.6" stroke-linecap="round" stroke-linejoin="round"><path d="M8 10V8.5A.5.5 0 0 1 8.5 8H10"/><path d="M16 10V8.5a.5.5 0 0 0-.5-.5H14"/><path d="M8 16v1.5a.5.5 0 0 0 .5.5H10"/><path d="M16 16v1.5a.5.5 0 0 1-.5.5H14"/></g></symbol><symbol id="i-compare" viewBox="0 0 24 24"><g fill="none" stroke="currentColor" stroke-width="1.6" stroke-linecap="round" stroke-linejoin="round"><path d="M10 9v9M14 9v9"/><path d="M8 12h1.5M14.5 15H16"/></g></symbol><symbol id="i-dedupe" viewBox="0 0 24 24"><g fill="none" stroke="currentColor" stroke-width="1.6" stroke-linecap="round" stroke-linejoin="round"><rect x="9" y="9" width="5" height="6" rx=".5"/><rect x="11" y="11" width="5" height="6" rx=".5"/></g></symbol><symbol id="i-extract-images" viewBox="0 0 24 24"><g fill="none" stroke="currentColor" stroke-width="1.6" stroke-linecap="round" stroke-linejoin="round"><rect x="8" y="9" width="6" height="5" rx=".8"/><circle cx="9.8" cy="10.8" r=".45" fill="currentColor" stroke="none"/><path d="M8 13l1.6-1.6 1.5 1.5 1.4-1.9 1.5 1.9"/><path d="M16 12v4M14.3 14.3L16 16l1.7-1.7"/></g></symbol><symbol id="i-metadata" viewBox="0 0 24 24"><g fill="none" stroke="currentColor" stroke-width="1.6" stroke-linecap="round" stroke-linejoin="round"><circle cx="12" cy="13" r="4"/><path d="M12 11.6v.1M12 12.8v2.4"/></g></symbol><symbol id="i-numbering" viewBox="0 0 24 24"><g fill="none" stroke="currentColor" stroke-width="1.6" stroke-linecap="round" stroke-linejoin="round"><path d="M8.5 10v6M9.7 10v6M8.2 12h1.8M8.2 14h1.8"/><path d="M12.5 10h3M12.5 13h3M12.5 16h2"/></g></symbol><symbol id="i-header-footer" viewBox="0 0 24 24"><g fill="none" stroke="currentColor" stroke-width="1.6" stroke-linecap="round" stroke-linejoin="round"><path d="M8 10h8M8 16h8"/><path d="M9 13h6"/></g></symbol><symbol id="i-grid" viewBox="0 0 24 24"><g fill="none" stroke="currentColor" stroke-width="1.6" stroke-linecap="round" stroke-linejoin="round"><rect x="8" y="9" width="3.5" height="3.5"/><rect x="12.5" y="9" width="3.5" height="3.5"/><rect x="8" y="13" width="3.5" height="3.5"/><rect x="12.5" y="13" width="3.5" height="3.5"/></g></symbol><symbol id="i-insert-page" viewBox="0 0 24 24"><g fill="none" stroke="currentColor" stroke-width="1.6" stroke-linecap="round" stroke-linejoin="round"><rect x="9" y="9" width="6" height="8" rx=".6"/><path d="M12 11.5v3M10.5 13h3"/></g></symbol><symbol id="i-bookmark" viewBox="0 0 24 24"><g fill="none" stroke="currentColor" stroke-width="1.6" stroke-linecap="round" stroke-linejoin="round"><path d="M9.5 9h5v8l-2.5-2-2.5 2z"/></g></symbol><symbol id="i-split-size" viewBox="0 0 24 24"><g fill="none" stroke="currentColor" stroke-width="1.6" stroke-linecap="round" stroke-linejoin="round"><rect x="8.5" y="9" width="7" height="8" rx=".6"/><path d="M8.5 13.5l1.3-1.3-1.3-1.3M15.5 13.5l-1.3-1.3 1.3-1.3" transform="translate(0,0)"/><circle cx="12" cy="13" r=".4" fill="currentColor" stroke="none"/></g></symbol><symbol id="i-redact" viewBox="0 0 24 24"><g fill="none" stroke="currentColor" stroke-width="1.6" stroke-linecap="round" stroke-linejoin="round"><path d="M8 10.5h8M8 13.5h5"/><rect x="8" y="15" width="5" height="2" fill="currentColor" stroke="none"/></g></symbol><symbol id="i-flatten" viewBox="0 0 24 24"><g fill="none" stroke="currentColor" stroke-width="1.6" stroke-linecap="round" stroke-linejoin="round"><path d="M9 10l3 2 3-2"/><path d="M8 15.5h8"/></g></symbol><symbol id="i-sanitize" viewBox="0 0 24 24"><g fill="none" stroke="currentColor" stroke-width="1.6" stroke-linecap="round" stroke-linejoin="round"><path d="M12 9l.9 1.9 2.1.3-1.5 1.5.4 2.1-1.9-1-1.9 1 .4-2.1-1.5-1.5 2.1-.3z"/></g></symbol><symbol id="i-grayscale" viewBox="0 0 24 24"><g fill="none" stroke="currentColor" stroke-width="1.6" stroke-linecap="round" stroke-linejoin="round"><circle cx="12" cy="13" r="4"/><path d="M12 9a4 4 0 0 1 0 8z" fill="currentColor" stroke="none"/></g></symbol><symbol id="i-convert" viewBox="0 0 24 24"><g fill="none" stroke="currentColor" stroke-width="1.6" stroke-linecap="round" stroke-linejoin="round"><path d="M8.5 12h6M12.5 9.5L15 12l-2.5 2.5"/><path d="M15.5 16H9.5M11.5 13.5L9 16l2.5 2.5"/></g></symbol><symbol id="i-speech" viewBox="0 0 24 24"><g fill="none" stroke="currentColor" stroke-width="1.6" stroke-linecap="round" stroke-linejoin="round"><path d="M9 12v2h1.6l2.4 2v-6l-2.4 2z"/><path d="M15 11.5a3 3 0 0 1 0 3"/></g></symbol><symbol id="i-table" viewBox="0 0 24 24"><g fill="none" stroke="currentColor" stroke-width="1.6" stroke-linecap="round" stroke-linejoin="round"><rect x="8" y="9.5" width="8" height="7" rx=".5"/><path d="M8 12.5h8M11.3 9.5v7"/></g></symbol><symbol id="i-archive" viewBox="0 0 24 24"><g fill="none" stroke="currentColor" stroke-width="1.6" stroke-linecap="round" stroke-linejoin="round"><rect x="8.5" y="9" width="7" height="8" rx=".6"/><path d="M10 11h4M10 13h4M10 15h2.5"/></g></symbol><symbol id="i-editor" viewBox="0 0 24 24"><g fill="none" stroke="currentColor" stroke-width="1.6" stroke-linecap="round" stroke-linejoin="round"><path d="M9 17l.5-2.2L14.8 9.5a1.2 1.2 0 0 1 1.7 1.7L11.2 16.5z"/></g></symbol><symbol id="i-highlight" viewBox="0 0 24 24"><g fill="none" stroke="currentColor" stroke-width="1.6" stroke-linecap="round" stroke-linejoin="round"><path d="M8 16.5h8"/><path d="M9.5 14.5L14 10l1.5 1.5-4.5 4.5H9.5z"/></g></symbol><symbol id="i-watermark" viewBox="0 0 24 24"><g fill="none" stroke="currentColor" stroke-width="1.6" stroke-linecap="round" stroke-linejoin="round"><path d="M12 9.5c1.6 2 2.5 3.4 2.5 4.6a2.5 2.5 0 1 1-5 0c0-1.2.9-2.6 2.5-4.6z"/></g></symbol><symbol id="i-sign" viewBox="0 0 24 24"><g fill="none" stroke="currentColor" stroke-width="1.6" stroke-linecap="round" stroke-linejoin="round"><path d="M8.5 15.5c1-3 2-4.5 2.7-4.5s.3 2.6 1 2.6 1.6-2 2.4-2 .6 2.4 1.4 2.4 1-1 1.5-1"/></g></symbol><symbol id="i-forms" viewBox="0 0 24 24"><g fill="none" stroke="currentColor" stroke-width="1.6" stroke-linecap="round" stroke-linejoin="round"><rect x="8.5" y="9.5" width="3.5" height="3.5" rx=".5"/><path d="M9.5 11.2l.6.6 1.2-1.3"/><path d="M13.5 10h3M13.5 12h3M9 15h7"/></g></symbol><symbol id="i-stamp" viewBox="0 0 24 24"><g fill="none" stroke="currentColor" stroke-width="1.6" stroke-linecap="round" stroke-linejoin="round"><circle cx="12" cy="12.5" r="3.2"/><path d="M9.5 17h5"/></g></symbol><symbol id="i-lock" viewBox="0 0 24 24"><g fill="none" stroke="currentColor" stroke-width="1.6" stroke-linecap="round" stroke-linejoin="round"><rect x="9" y="12" width="6" height="5" rx=".8"/><path d="M10.3 12v-1.5a1.7 1.7 0 0 1 3.4 0V12"/></g></symbol><symbol id="i-unlock" viewBox="0 0 24 24"><g fill="none" stroke="currentColor" stroke-width="1.6" stroke-linecap="round" stroke-linejoin="round"><rect x="9" y="12" width="6" height="5" rx=".8"/><path d="M10.3 12v-1.5a1.7 1.7 0 0 1 3.2-.8"/></g></symbol><symbol id="i-resize" viewBox="0 0 24 24"><g fill="none" stroke="currentColor" stroke-width="1.6" stroke-linecap="round" stroke-linejoin="round"><path d="M9 15l3-3M9 12v3h3"/><path d="M15 10l-3 3M15 13v-3h-3"/></g></symbol><symbol id="i-remove-bg" viewBox="0 0 24 24"><g fill="none" stroke="currentColor" stroke-width="1.6" stroke-linecap="round" stroke-linejoin="round"><path d="M9 9l6 6M15 9l-6 6"/><circle cx="12" cy="14.5" r="2.2"/></g></symbol><symbol id="i-exif" viewBox="0 0 24 24"><g fill="none" stroke="currentColor" stroke-width="1.6" stroke-linecap="round" stroke-linejoin="round"><path d="M12 9c1.9 0 3.2 1.4 3.2 3.1 0 1.9-3.2 5.4-3.2 5.4s-3.2-3.5-3.2-5.4C8.8 10.4 10.1 9 12 9z"/><circle cx="12" cy="12.1" r=".9"/><path d="M8.5 17.5l7-7" stroke-dasharray="0.1 2.2"/></g></symbol><symbol id="i-favicon" viewBox="0 0 24 24"><g fill="none" stroke="currentColor" stroke-width="1.6" stroke-linecap="round" stroke-linejoin="round"><path d="M12 9l1.1 2.3 2.5.4-1.8 1.8.4 2.5-2.2-1.2-2.2 1.2.4-2.5-1.8-1.8 2.5-.4z"/></g></symbol><symbol id="i-id-card" viewBox="0 0 24 24"><g fill="none" stroke="currentColor" stroke-width="1.6" stroke-linecap="round" stroke-linejoin="round"><rect x="8" y="10" width="8" height="6" rx=".8"/><circle cx="10.3" cy="12.6" r=".8"/><path d="M9.3 15c.2-.9.9-1.3 1-1.3s.8.4 1 1.3M12.5 12h2.5M12.5 13.6h2"/></g></symbol><symbol id="i-batch" viewBox="0 0 24 24"><g fill="none" stroke="currentColor" stroke-width="1.6" stroke-linecap="round" stroke-linejoin="round"><rect x="8" y="10" width="6" height="5" rx=".6"/><rect x="10" y="8.5" width="6" height="5" rx=".6"/></g></symbol><symbol id="i-certificate" viewBox="0 0 24 24"><g fill="none" stroke="currentColor" stroke-width="1.6" stroke-linecap="round" stroke-linejoin="round"><circle cx="12" cy="12" r="2.6"/><path d="M10.4 14.2L9.5 18l2.5-1.3 2.5 1.3-.9-3.8"/></g></symbol><symbol id="i-invoice" viewBox="0 0 24 24"><g fill="none" stroke="currentColor" stroke-width="1.6" stroke-linecap="round" stroke-linejoin="round"><rect x="8.5" y="9" width="7" height="8" rx=".6"/><path d="M10 11.2h4M10 13h4M10 14.8h2.5"/></g></symbol><symbol id="i-video" viewBox="0 0 24 24"><g fill="none" stroke="currentColor" stroke-width="1.6" stroke-linecap="round" stroke-linejoin="round"><rect x="8" y="10" width="8" height="6" rx="1"/><path d="M11 12v2l2-1z" fill="currentColor" stroke="none"/></g></symbol><symbol id="i-gif" viewBox="0 0 24 24"><g fill="none" stroke="currentColor" stroke-width="1.6" stroke-linecap="round" stroke-linejoin="round"><rect x="8" y="10" width="4" height="6" rx=".5"/><rect x="13" y="10" width="3" height="6" rx=".5"/><path d="M8 12h4M8 14h4"/></g></symbol><symbol id="i-trim" viewBox="0 0 24 24"><g fill="none" stroke="currentColor" stroke-width="1.6" stroke-linecap="round" stroke-linejoin="round"><path d="M9 10l4 4M13 10l-4 4"/><circle cx="8.6" cy="9.6" r=".9"/><circle cx="8.6" cy="14.4" r=".9"/><path d="M10.5 12H16"/></g></symbol><symbol id="i-record" viewBox="0 0 24 24"><g fill="none" stroke="currentColor" stroke-width="1.6" stroke-linecap="round" stroke-linejoin="round"><circle cx="12" cy="13" r="3.2" fill="currentColor" stroke="none"/></g></symbol><symbol id="i-audio" viewBox="0 0 24 24"><g fill="none" stroke="currentColor" stroke-width="1.6" stroke-linecap="round" stroke-linejoin="round"><path d="M9 15v-3.5l4-1v4.2"/><circle cx="8.2" cy="15.3" r="1"/><circle cx="12.2" cy="14.7" r="1"/></g></symbol><symbol id="i-ask" viewBox="0 0 24 24"><g fill="none" stroke="currentColor" stroke-width="1.6" stroke-linecap="round" stroke-linejoin="round"><path d="M12 9.3l.8 1.8 1.9.3-1.4 1.4.3 1.9-1.6-.9-1.6.9.3-1.9-1.4-1.4 1.9-.3z"/></g></symbol><symbol id="i-counter" viewBox="0 0 24 24"><g fill="none" stroke="currentColor" stroke-width="1.6" stroke-linecap="round" stroke-linejoin="round"><path d="M8.3 10.2h.6v3.6M8.2 13.8h1"/><path d="M11.5 10.2c1 0 1.4.5 1.4 1s-.4.9-1.4 1c1.1 0 1.5.5 1.5 1.1s-.5 1.1-1.5 1.1"/><path d="M15 10.2l1.2 3.6M16.2 10.2L15 13.8"/></g></symbol><symbol id="i-case" viewBox="0 0 24 24"><g fill="none" stroke="currentColor" stroke-width="1.6" stroke-linecap="round" stroke-linejoin="round"><path d="M9 16l2.2-6L13.4 16M9.7 14h3"/><path d="M15.5 12.2a1.7 1.7 0 1 0 0 2.6M17 11.5v3.3"/></g></symbol><symbol id="i-diff" viewBox="0 0 24 24"><g fill="none" stroke="currentColor" stroke-width="1.6" stroke-linecap="round" stroke-linejoin="round"><path d="M9.5 9.5v8M9.5 12l1.5-1.5M9.5 15l1.5 1.5"/><path d="M14.5 9.5v8M14.5 12l-1.5-1.5M14.5 15l-1.5 1.5"/></g></symbol><symbol id="i-lorem" viewBox="0 0 24 24"><g fill="none" stroke="currentColor" stroke-width="1.6" stroke-linecap="round" stroke-linejoin="round"><path d="M8 10h8M8 12.3h8M8 14.6h6M8 16.9h7"/></g></symbol><symbol id="i-qr" viewBox="0 0 24 24"><g fill="none" stroke="currentColor" stroke-width="1.6" stroke-linecap="round" stroke-linejoin="round"><rect x="8" y="9" width="3" height="3"/><rect x="13" y="9" width="3" height="3"/><rect x="8" y="14" width="3" height="3"/><path d="M13 14h1.5v1.5H13zM15.5 14h1v1M13 16.5h1M15.5 16.5h1"/></g></symbol><symbol id="i-password" viewBox="0 0 24 24"><g fill="none" stroke="currentColor" stroke-width="1.6" stroke-linecap="round" stroke-linejoin="round"><circle cx="10" cy="12" r="2"/><path d="M11.8 12h5M14.5 12v2M16.5 12v1.5"/></g></symbol><symbol id="i-unit" viewBox="0 0 24 24"><g fill="none" stroke="currentColor" stroke-width="1.6" stroke-linecap="round" stroke-linejoin="round"><rect x="8" y="10.5" width="8" height="3" rx=".5"/><path d="M10 10.5v1.2M12 10.5v1.2M14 10.5v1.2"/></g></symbol><symbol id="i-json" viewBox="0 0 24 24"><g fill="none" stroke="currentColor" stroke-width="1.6" stroke-linecap="round" stroke-linejoin="round"><path d="M10 9.5c-1.2 0-1.5.6-1.5 1.5s0 1.5-1 1.5c1 0 1 .6 1 1.5s.3 1.5 1.5 1.5"/><path d="M14 9.5c1.2 0 1.5.6 1.5 1.5s0 1.5 1 1.5c-1 0-1 .6-1 1.5s-.3 1.5-1.5 1.5"/></g></symbol><symbol id="i-code" viewBox="0 0 24 24"><g fill="none" stroke="currentColor" stroke-width="1.6" stroke-linecap="round" stroke-linejoin="round"><path d="M10 10l-2 3 2 3M14 10l2 3-2 3"/></g></symbol><symbol id="i-hash" viewBox="0 0 24 24"><g fill="none" stroke="currentColor" stroke-width="1.6" stroke-linecap="round" stroke-linejoin="round"><path d="M9.5 9.5l-1 8M13.5 9.5l-1 8M8 12.3h8M7.7 15h8"/></g></symbol><symbol id="i-timestamp" viewBox="0 0 24 24"><g fill="none" stroke="currentColor" stroke-width="1.6" stroke-linecap="round" stroke-linejoin="round"><circle cx="12" cy="13" r="4"/><path d="M12 10.8V13l1.6 1"/></g></symbol><symbol id="i-link" viewBox="0 0 24 24"><g fill="none" stroke="currentColor" stroke-width="1.6" stroke-linecap="round" stroke-linejoin="round"><path d="M10.5 14.5l3-3"/><path d="M9.3 15.7a2 2 0 0 1 0-2.8l1-1a2 2 0 0 1 2.8 0"/><path d="M14.7 10.3a2 2 0 0 1 0 2.8l-1 1a2 2 0 0 1-2.8 0"/></g></symbol><symbol id="i-calendar" viewBox="0 0 24 24"><g fill="none" stroke="currentColor" stroke-width="1.6" stroke-linecap="round" stroke-linejoin="round"><rect x="8" y="9.5" width="8" height="7" rx=".8"/><path d="M8 12h8M10 8.5v2M14 8.5v2"/></g></symbol><symbol id="i-scale" viewBox="0 0 24 24"><g fill="none" stroke="currentColor" stroke-width="1.6" stroke-linecap="round" stroke-linejoin="round"><path d="M12 9v8M9 17h6"/><path d="M9 10.5l-1.5 3h3zM15 10.5l-1.5 3h3z"/><path d="M8 13.5h2M14 13.5h2"/></g></symbol><symbol id="i-palette" viewBox="0 0 24 24"><g fill="none" stroke="currentColor" stroke-width="1.6" stroke-linecap="round" stroke-linejoin="round"><path d="M12 9a4.2 4.2 0 1 0 0 8c.7 0 1-.4 1-1s-.3-.7-.3-1.1c0-.6.5-.9 1-.9H15a2 2 0 0 0 2-2c0-1.7-2.2-3-5-3z"/><circle cx="10" cy="11.6" r=".5" fill="currentColor" stroke="none"/><circle cx="13" cy="11" r=".5" fill="currentColor" stroke="none"/></g></symbol><symbol id="i-timer" viewBox="0 0 24 24"><g fill="none" stroke="currentColor" stroke-width="1.6" stroke-linecap="round" stroke-linejoin="round"><circle cx="12" cy="13.5" r="3.5"/><path d="M12 11v2.5l1.8 1"/><path d="M10.5 8.5h3M12 8.5V10"/></g></symbol><symbol id="i-dice" viewBox="0 0 24 24"><g fill="none" stroke="currentColor" stroke-width="1.6" stroke-linecap="round" stroke-linejoin="round"><rect x="8.5" y="9.5" width="7" height="7" rx="1.2"/><circle cx="10.3" cy="11.3" r=".5" fill="currentColor" stroke="none"/><circle cx="13.7" cy="14.7" r=".5" fill="currentColor" stroke="none"/><circle cx="12" cy="13" r=".5" fill="currentColor" stroke="none"/></g></symbol><symbol id="i-barcode" viewBox="0 0 24 24"><g fill="none" stroke="currentColor" stroke-width="1.6" stroke-linecap="round" stroke-linejoin="round"><path d="M8 9.5v7M9.6 9.5v7M11 9.5v7M13 9.5v7M14.4 9.5v7M16 9.5v7"/></g></symbol><symbol id="i-regex" viewBox="0 0 24 24"><g fill="none" stroke="currentColor" stroke-width="1.6" stroke-linecap="round" stroke-linejoin="round"><path d="M9 12.5h2.5M10.3 11v3"/><path d="M13.5 11l2.5 3M16 11l-2.5 3"/></g></symbol><symbol id="i-bank" viewBox="0 0 24 24"><g fill="none" stroke="currentColor" stroke-width="1.6" stroke-linecap="round" stroke-linejoin="round"><path d="M8 16.5h8M8.7 16.5v-4M11.3 16.5v-4M12.7 16.5v-4M15.3 16.5v-4"/><path d="M8 12.5l4-2.7 4 2.7z"/></g></symbol><symbol id="i-currency" viewBox="0 0 24 24"><g fill="none" stroke="currentColor" stroke-width="1.6" stroke-linecap="round" stroke-linejoin="round"><circle cx="10.2" cy="12" r="2.4"/><circle cx="13.8" cy="14" r="2.4"/></g></symbol><symbol id="i-ai" viewBox="0 0 24 24"><g fill="none" stroke="currentColor" stroke-width="1.6" stroke-linecap="round" stroke-linejoin="round"><path d="M12 8.7l.9 2.2 2.2.4-1.6 1.6.4 2.2-1.9-1-1.9 1 .4-2.2-1.6-1.6 2.2-.4z"/><path d="M9 17l.4-1M15 17l-.4-1"/></g></symbol><symbol id="i-globe" viewBox="0 0 24 24"><g fill="none" stroke="currentColor" stroke-width="1.6" stroke-linecap="round" stroke-linejoin="round"><circle cx="12" cy="13" r="4"/><path d="M8 13h8M12 9a6.5 6.5 0 0 1 0 8 6.5 6.5 0 0 1 0-8"/></g></symbol><symbol id="i-mic" viewBox="0 0 24 24"><g fill="none" stroke="currentColor" stroke-width="1.6" stroke-linecap="round" stroke-linejoin="round"><rect x="10.7" y="9.3" width="2.6" height="5" rx="1.3"/><path d="M9 13a3 3 0 0 0 6 0M12 16v1.5M10.5 17.5h3"/></g></symbol><symbol id="i-caption" viewBox="0 0 24 24"><g fill="none" stroke="currentColor" stroke-width="1.6" stroke-linecap="round" stroke-linejoin="round"><rect x="8" y="9.5" width="8" height="5.5" rx=".8"/><circle cx="10" cy="11.6" r=".7"/><path d="M8.5 14.5l2.2-2 1.6 1.4 2.2-2.4 1.5 1.8"/></g></symbol><symbol id="i-doc-generic" viewBox="0 0 24 24"><g fill="none" stroke="currentColor" stroke-width="1.6" stroke-linecap="round" stroke-linejoin="round"><path d="M9.5 10h5M9.5 12.3h5M9.5 14.6h3.5"/></g></symbol></svg>